HIERARCHY
ROOT Hips
{
	OFFSET 0.000000 0.000000 0.000000 
	CHANNELS 6 Xposition Yposition Zposition Yrotation Zrotation Xrotation 
	JOINT Lumbar
	{
		OFFSET 0.000000 0.000000 0.000000 
		CHANNELS 3 Zrotation Xrotation Yrotation
		JOINT Neck
		{
			OFFSET 0.000000 0.445665 0.000000 
			CHANNELS 3 Zrotation Xrotation Yrotation
			End Site
			{
				OFFSET 0.000000 0.227535 0.000000 
			}
		}
		JOINT RightShoulder
		{
			OFFSET 0.019635 0.377685 0.194865 
			CHANNELS 3 Zrotation Xrotation Yrotation
			JOINT RightElbow
			{
				OFFSET 0.000000 -0.243375 0.000000 
				CHANNELS 2 Zrotation Yrotation
				JOINT RightWrist
				{
					OFFSET 0.000000 -0.264825 0.000000 
					CHANNELS 2 Zrotation Xrotation
					End Site
					{
						OFFSET 0.006600 -0.176220 0.000990 
					}
				}
			}
		}
		JOINT LeftShoulder
		{
			OFFSET 0.019635 0.377685 -0.194865 
			CHANNELS 3 Zrotation Xrotation Yrotation
			JOINT LeftElbow
			{
				OFFSET 0.000000 -0.243375 0.000000 
				CHANNELS 2 Zrotation Yrotation
				JOINT LeftWrist
				{
					OFFSET 0.000000 -0.264825 0.000000 
					CHANNELS 2 Zrotation Xrotation
					End Site
					{
						OFFSET 0.006600 -0.176220 -0.000990 
					}
				}
			}
		}
	}
	JOINT RightHip
	{
		OFFSET 0.052140 -0.069960 0.075570 
		CHANNELS 3 Zrotation Xrotation Yrotation
		JOINT RightKnee
		{
			OFFSET 0.000000 -0.402270 0.000000 
			CHANNELS 1 Zrotation
			JOINT RightAnkle
			{
				OFFSET 0.000000 -0.404085 0.000000 
				CHANNELS 3 Zrotation Xrotation Yrotation
				End Site
				{
					OFFSET 0.204105 -0.089430 0.008415 
				}
			}
		}
	}
	JOINT LeftHip
	{
		OFFSET 0.052140 -0.069960 -0.075570 
		CHANNELS 3 Zrotation Xrotation Yrotation
		JOINT LeftKnee
		{
			OFFSET 0.000000 -0.402270 0.000000 
			CHANNELS 1 Zrotation
			JOINT LeftAnkle
			{
				OFFSET 0.000000 -0.404085 0.000000 
				CHANNELS 3 Zrotation Xrotation Yrotation
				End Site
				{
					OFFSET 0.204105 -0.089430 -0.008415 
				}
			}
		}
	}
}
MOTION
Frames: 20
Frame Time: 0.02
-0.2053 0.96232 0.27838 83.15584 0 0.27699 -4.13487 0.40997 1.92013 -2.67029 -2.17943 2.45257 -7.96638 -14.73771 -16.3169 15.11006 83.22852 -1.00809 -1.0114 -8.09018 17.62113 -3.71265 114.77548 -110.00692 -43.47863 6.48086 7.82553 6.35279 25.9505 -27.58816 9.6551 -6.25325 -6.0527 16.7854 -2.99052 -6.61643 -39.34738 9.32459 8.02576 10.44277
-0.20803 0.96251 0.27471 81.03182 0 0.6786 -4.30281 0.21582 1.91836 -3.04493 -2.07379 2.27954 -6.30823 -15.03476 -15.40711 15.55045 83.15127 -0.99375 -1.48486 -7.74161 17.55194 -4.27144 114.71259 -110.20831 -43.89166 6.48594 7.99747 6.02517 27.37104 -28.09049 10.06648 -5.94384 -5.36694 15.79274 -3.64296 -7.08799 -36.34674 9.10019 7.96198 10.86828
-0.21095 0.96209 0.27031 78.90431 0 1.04897 -4.27983 -0.03641 1.81655 -3.8405 -1.80454 1.93521 -4.04977 -15.35809 -14.52908 15.89355 83.07569 -0.94687 -1.96365 -7.17324 17.27671 -4.60271 114.60557 -110.37262 -44.31443 6.48702 8.28969 5.80362 28.87317 -28.94176 10.60065 -5.64587 -4.76342 14.58319 -4.14535 -7.5659 -33.74809 8.59321 7.81122 11.5817
-0.21381 0.96191 0.26628 76.81045 0 1.46167 -4.34367 -0.29169 1.745 -4.44222 -1.6078 1.66572 -2.08492 -15.65704 -13.64337 16.28797 82.99853 -0.91755 -2.4425 -6.69002 17.10289 -5.04302 114.53614 -110.56642 -44.7393 6.4911 8.5634 5.50985 30.27872 -29.69842 11.08546 -5.3073 -4.09938 13.48376 -4.73596 -7.97717 -30.99219 8.22259 7.70562 12.12439
-0.21659 0.96188 0.26208 74.57354 0 1.76384 -4.40518 -0.42886 1.73729 -5.05906 -1.4265 1.40624 -0.01977 -15.99761 -12.71683 16.6654 82.92455 -0.87867 -2.92483 -6.26762 16.90231 -5.45379 114.39015 -110.69174 -45.12936 6.48769 8.68669 5.31085 31.9418 -30.19306 11.54803 -5.11306 -3.52804 12.31845 -5.2445 -8.6453 -28.0879 7.81494 7.57415 12.83788
-0.21954 0.9614 0.25808 72.63927 0 2.28109 -4.42669 -0.81999 1.57463 -5.74435 -1.1694 1.08766 1.97185 -16.26379 -11.8893 17.04792 82.84466 -0.85112 -3.39318 -5.66636 16.70421 -5.87563 114.3983 -110.96395 -45.60456 6.50135 9.14868 4.94333 33.08134 -31.30592 12.08157 -4.62529 -2.78679 11.24606 -5.88327 -8.79011 -25.60575 7.41996 7.47508 13.26436
-0.22302 0.95972 0.2548 71.51067 0 3.45594 -4.38842 -1.94099 0.98727 -6.49617 -0.7651 0.63255 3.6427 -16.29631 -11.30742 17.49456 82.74514 -0.86318 -3.85331 -4.63293 16.58582 -6.36589 114.79207 -111.55566 -46.21963 6.54836 10.54441 4.07115 32.80771 -34.13007 12.814 -3.29766 -1.53842 10.47563 -6.96879 -7.42194 -24.16929 7.11269 7.50756 12.8133
-0.22663 0.95762 0.25177 70.69343 0 4.83715 -4.31611 -3.30711 0.2506 -7.30541 -0.28486 0.12822 5.21181 -16.25935 -10.82981 17.9428 82.63998 -0.88748 -4.29121 -3.4271 16.47076 -6.87852 115.35203 -112.31114 -46.93713 6.61778 12.27091 3.02952 31.99614 -37.54664 13.60765 -1.68185 -0.12243 9.81003 -8.18115 -5.54109 -23.15366 6.83092 7.5729 12.06673
-0.23011 0.95577 0.24863 69.75426 0 6.08706 -4.25714 -4.53276 -0.40319 -8.09992 0.17535 -0.34516 6.80725 -16.26847 -10.31839 18.37221 82.53957 -0.90551 -4.71763 -2.29375 16.34088 -7.39388 115.86847 -113.06018 -47.66852 6.68389 13.82874 2.07428 31.39396 -40.63459 14.35079 -0.21275 1.20781 9.10376 -9.30307 -3.93814 -21.96478 6.54902 7.60934 11.46302
-0.23388 0.95368 0.24543 68.73131 0 7.4955 -4.20045 -5.88373 -1.12146 -8.86007 0.57837 -0.86631 8.5087 -16.21304 -9.74845 18.87682 82.43078 -0.92504 -5.23769 -1.1725 16.2664 -7.84904 116.24683 -113.53744 -48.1454 6.71164 15.47148 1.08076 30.93544 -43.98965 15.19213 1.33202 2.58573 8.36 -10.55941 -2.14182 -20.7121 6.21038 7.69924 10.82869
-0.23707 0.95198 0.24243 67.95809 0 8.62171 -4.13344 -7.03048 -1.7426 -9.70139 1.11851 -1.29045 9.95629 -16.28036 -9.32746 19.22391 82.3371 -0.94527 -5.55465 0.00581 16.07203 -8.43504 116.95464 -114.59926 -49.17623 6.83617 17.01026 0.12824 30.05808 -46.91924 15.84427 2.77574 3.89258 7.72237 -11.56633 -0.63132 -19.68854 5.99778 7.68978 10.18992
-0.23874 0.95145 0.23988 67.78956 0 8.92987 -4.04701 -7.55769 -2.03249 -10.73692 1.99923 -1.49451 10.73179 -16.65844 -9.27161 19.15715 82.29316 -0.96057 -5.33936 1.35183 15.61594 -9.39991 118.51324 -117.41573 -51.71096 7.11997 18.2144 -0.69508 28.07716 -48.57038 15.93631 3.97201 5.07082 7.35242 -11.86664 0.00593 -19.18403 6.14502 7.37182 9.55934
-0.23978 0.95135 0.23753 67.86408 0 8.94473 -3.95217 -7.86932 -2.22368 -11.8521 3.01716 -1.58807 11.25065 -17.16961 -9.36692 18.92842 82.26217 -0.97728 -4.91674 2.7386 15.028 -10.4906 120.39904 -120.78161 -54.79673 7.5165 19.29493 -1.46742 25.70837 -49.76231 15.8386 5.03719 6.15213 7.08715 -11.90965 0.33028 -18.89639 6.41651 6.95779 8.9419
-0.24102 0.95108 0.23511 67.832 0 9.0864 -3.86172 -8.2771 -2.47723 -12.94021 3.9855 -1.69099 11.8824 -17.65083 -9.40505 18.75993 82.22239 -0.9957 -4.57293 4.07109 14.45422 -11.51224 122.15012 -123.77738 -57.63441 7.93251 20.41055 -2.24645 23.56724 -51.13701 15.84307 6.09599 7.20669 6.7744 -12.06283 0.77053 -18.51366 6.62043 6.60561 8.35197
-0.24263 0.95069 0.23262 67.7911 0 9.26298 -3.76771 -8.70312 -2.66314 -13.99571 4.90678 -1.96463 12.53032 -18.00546 -9.39368 18.6471 82.19957 -1.00355 -4.29063 5.56007 14.06956 -12.59267 123.85722 -127.28606 -60.4781 8.06331 21.6299 -3.09939 21.18708 -52.64659 15.78589 7.44502 8.56495 6.46313 -12.24973 1.33904 -18.12831 6.87102 6.17876 7.61383
-0.24331 0.95064 0.23031 67.82652 0 9.29408 -3.67942 -9.03427 -2.96332 -15.13267 5.95254 -1.8603 13.08044 -18.65031 -9.52566 18.38085 82.13844 -1.0349 -3.83477 6.73129 13.26475 -13.57016 125.71985 -129.85628 -63.42342 8.79892 22.59564 -3.78595 19.22389 -53.75271 15.80691 8.15249 9.2667 6.17438 -12.30263 1.56023 -17.79803 7.05476 5.8829 7.18722
-0.24165 0.95143 0.22847 67.9751 0 8.99796 -3.61061 -9.17614 -3.61216 -16.51331 7.3514 -0.70008 13.46085 -20.11531 -9.96554 17.7227 82.02259 -1.11971 -2.92082 7.00496 11.28811 -14.31832 128.03123 -129.68588 -66.64658 11.31281 22.92194 -4.00865 18.47408 -53.90231 16.12718 7.14081 8.16958 5.90406 -12.05643 0.8894 -17.53275 7.01403 5.98369 7.65406
-0.23907 0.95253 0.22681 68.19747 0 8.56413 -3.54755 -9.22514 -4.37648 -17.96561 8.86213 0.82934 13.74548 -21.85822 -10.55233 16.91769 81.85882 -1.23011 -1.84537 6.95704 8.90132 -14.94174 130.46883 -128.55388 -69.92831 14.40655 22.98963 -4.06792 18.16641 -53.65042 16.52563 5.48545 6.41778 5.65554 -11.68201 -0.12082 -17.31938 6.90341 6.21737 8.4286
-0.23686 0.95348 0.22506 68.40977 0 8.19038 -3.48124 -9.30215 -5.08188 -19.35981 10.29338 2.16468 14.04925 -23.44097 -11.1062 16.18451 81.67996 -1.3361 -0.86286 7.06383 6.73119 -15.56692 132.78222 -127.87116 -73.09552 17.14499 23.15423 -4.21238 17.68023 -53.54949 16.86358 4.10656 4.96912 5.40865 -11.36057 -0.97221 -17.10268 6.83087 6.38252 9.03989
-0.23481 0.95449 0.22335 68.53251 0 7.81661 -3.4181 -9.43115 -5.81306 -20.86502 11.85138 3.61614 14.4454 -25.17258 -11.52718 15.42228 81.65234 -1.41186 0.21096 7.14169 4.42893 -16.43136 135.38788 -127.15644 -76.65118 20.27264 23.40275 -4.3094 17.08433 -53.56528 17.29975 2.77997 3.48654 5.11741 -11.05304 -1.85419 -16.80921 6.73594 6.57855 9.75041
